<?xml version="1.0" encoding="UTF-8"?>
<svg id="Layer_1" data-name="Layer 1" xmlns="http://www.w3.org/2000/svg" viewBox="0 0 565.28 145.82">
  <defs>
    <style>
      .cls-1 {
        stroke-width: 0px;
      }

      .cls-1, .cls-2, .cls-3 {
        fill: #010101;
      }

      .cls-2 {
        stroke-width: .5px;
      }

      .cls-2, .cls-3, .cls-4 {
        stroke: #010101;
        stroke-miterlimit: 10;
      }

      .cls-4 {
        fill: none;
      }
    </style>
  </defs>
  <g>
    <path class="cls-1" d="M194.69,126.92c-1.14,0-2.14-.28-3-.86-.86-.57-1.46-1.37-1.8-2.4l-27.76-83.1c-.46-2.51-.34-4.37.34-5.57s1.88-1.8,3.6-1.8c.91,0,1.83.26,2.74.77.91.51,1.6,1.29,2.06,2.31l25.36,76.42h-2.23l23.3-75.39c.34-1.26.97-2.25,1.88-3,.91-.74,2-1.11,3.25-1.11s2.31.37,3.17,1.11c.86.74,1.51,1.74,1.97,3l23.99,75.39h-3.08l25.36-76.42c.91-2.06,2.51-3.08,4.8-3.08,2.06,0,3.45.8,4.2,2.4.74,1.6.71,3.26-.09,4.97l-27.58,83.1c-.34,1.03-.94,1.83-1.8,2.4-.86.57-1.91.86-3.17.86-1.14,0-2.17-.28-3.08-.86-.92-.57-1.49-1.37-1.71-2.4l-24.5-76.07h2.23l-23.64,76.07c-.46,1.14-1.11,1.97-1.97,2.48-.86.51-1.8.77-2.83.77Z"/>
    <path class="cls-1" d="M341.52,127.95c-9.14,0-17.33-2.08-24.59-6.25-7.25-4.17-12.96-9.88-17.13-17.13-4.17-7.25-6.25-15.39-6.25-24.42s2.08-17.33,6.25-24.59c4.17-7.25,9.88-12.96,17.13-17.13,7.25-4.17,15.45-6.25,24.59-6.25s17.3,2.09,24.5,6.25c7.2,4.17,12.88,9.88,17.05,17.13,4.17,7.25,6.25,15.45,6.25,24.59l-4.28,6.85c0,7.77-1.91,14.73-5.74,20.9-3.83,6.17-9,11.05-15.51,14.65s-13.94,5.4-22.27,5.4ZM341.52,118.36c7.2,0,13.62-1.68,19.28-5.05,5.65-3.37,10.11-7.94,13.36-13.71,3.26-5.77,4.88-12.25,4.88-19.45s-1.63-13.85-4.88-19.62c-3.25-5.77-7.71-10.34-13.36-13.71-5.65-3.37-12.08-5.05-19.28-5.05s-13.48,1.69-19.19,5.05c-5.71,3.37-10.22,7.94-13.54,13.71-3.31,5.77-4.97,12.31-4.97,19.62s1.65,13.68,4.97,19.45c3.31,5.77,7.82,10.34,13.54,13.71,5.71,3.37,12.11,5.05,19.19,5.05ZM384.35,126.92c-1.6,0-2.89-.48-3.85-1.46-.97-.97-1.46-2.2-1.46-3.68v-31.35l3.25-10.28h7.02v41.63c0,1.49-.46,2.71-1.37,3.68-.92.97-2.12,1.46-3.6,1.46Z"/>
    <path class="cls-1" d="M420.16,126.92c-1.49,0-2.71-.48-3.68-1.46-.97-.97-1.46-2.2-1.46-3.68V38.34c0-1.6.48-2.85,1.46-3.77.97-.91,2.2-1.37,3.68-1.37,1.6,0,2.85.46,3.77,1.37.91.92,1.37,2.17,1.37,3.77v83.44c0,1.49-.46,2.71-1.37,3.68-.92.97-2.17,1.46-3.77,1.46ZM418.45,69.7c.69-7.31,2.68-13.79,6-19.45,3.31-5.65,7.59-10.08,12.85-13.28,5.25-3.2,11.08-4.8,17.48-4.8,4.34,0,7.71.51,10.11,1.54,2.4,1.03,3.31,2.86,2.74,5.48-.34,1.71-1.14,2.74-2.4,3.08-1.26.34-2.77.37-4.54.09-1.77-.28-3.74-.43-5.91-.43-5.71,0-10.79,1.2-15.25,3.6-4.46,2.4-7.94,5.68-10.45,9.85-2.51,4.17-3.77,8.94-3.77,14.31h-6.85Z"/>
    <path class="cls-1" d="M524.68,127.78c-9.02,0-17.05-2.03-24.07-6.08-7.02-4.05-12.54-9.68-16.53-16.88-4-7.2-6-15.42-6-24.67s1.88-17.62,5.65-24.76c3.77-7.14,8.96-12.76,15.59-16.88,6.62-4.11,14.22-6.17,22.79-6.17s15.93,1.97,22.44,5.91c6.51,3.94,11.59,9.37,15.25,16.28,3.65,6.91,5.48,14.88,5.48,23.9,0,1.49-.46,2.66-1.37,3.51-.92.86-2.12,1.28-3.6,1.28h-75.39v-8.91h78.13l-7.54,5.65c.23-7.42-1.03-13.99-3.77-19.7-2.74-5.71-6.66-10.19-11.74-13.45-5.08-3.25-11.05-4.88-17.9-4.88s-12.31,1.63-17.39,4.88c-5.08,3.26-9.08,7.74-11.99,13.45-2.91,5.71-4.37,12.34-4.37,19.87s1.54,13.99,4.63,19.7c3.08,5.71,7.37,10.19,12.85,13.45s11.76,4.88,18.85,4.88c4.46,0,8.94-.77,13.45-2.31,4.51-1.54,8.08-3.57,10.71-6.08.91-.91,2.03-1.4,3.34-1.46,1.31-.06,2.43.32,3.34,1.11,1.25,1.03,1.91,2.17,1.97,3.43.06,1.26-.49,2.4-1.63,3.43-3.66,3.31-8.43,6.06-14.31,8.22-5.88,2.17-11.51,3.26-16.88,3.26Z"/>
  </g>
  <path class="cls-3" d="M121.14,0v145.82"/>
  <path class="cls-2" d="M.71,54.45c0-.75.28-1.41.82-1.98.54-.57,1.16-.96,1.83-1.16l71.66-25.11c1.22-.33,2.29-.23,3.2.32.91.54,1.37,1.39,1.36,2.55,0,.68-.16,1.27-.46,1.78-.31.51-.93.9-1.88,1.16L9.85,55.71v-2.44s65.16,18.97,65.16,18.97c.54.14,1,.49,1.37,1.07.37.58.55,1.17.55,1.78,0,.68-.2,1.28-.57,1.83-.37.54-.87.91-1.48,1.11L9.68,96.45v-2.44s68.1,19.9,68.1,19.9c1.35.34,2.03,1.33,2.02,2.95,0,1.15-.45,1.98-1.33,2.48-.88.51-1.97.59-3.25.24L3.17,98.36c-.88-.28-1.54-.7-1.98-1.28-.44-.58-.66-1.2-.65-1.88,0-.81.26-1.49.77-2.03.51-.54,1.13-.91,1.88-1.11l65.51-18.22v2.44S3.34,57.72,3.34,57.72c-.81-.28-1.46-.7-1.93-1.28s-.71-1.24-.7-1.98Z"/>
  <path class="cls-4" d="M79.02,94.66c-.02.75-.3,1.4-.85,1.96-.56.56-1.18.94-1.86,1.12L5.01,119.65c-1.23.31-2.29.18-3.2-.38-.9-.56-1.34-1.42-1.31-2.57.02-.68.18-1.27.5-1.77.32-.5.95-.88,1.91-1.12l64.81-18.81h0L5.08,75.44c-.54-.15-.99-.51-1.35-1.1-.36-.59-.53-1.18-.52-1.79.01-.68.22-1.28.6-1.82.38-.53.89-.89,1.5-1.08l63.39-15.3h0L3.29,31.87c-1.35-.37-2-1.37-1.96-2.99.03-1.15.48-1.97,1.38-2.46.89-.49,1.98-.55,3.26-.18l71.45,24.48c.87.29,1.52.73,1.95,1.32.43.59.63,1.22.62,1.89-.02.81-.29,1.48-.81,2.01-.52.53-1.15.89-1.91,1.08l-60.83,15.72h0l60.02,18.61c.81.29,1.44.73,1.9,1.32.46.59.68,1.25.66,2Z"/>
</svg>