<?xml version="1.0" encoding="UTF-8"?>
<svg id="Layer_1" data-name="Layer 1" xmlns="http://www.w3.org/2000/svg" version="1.1" viewBox="0 0 565.3 145.8">
  <defs>
    <style>
      .cls-1 {
        stroke: #010101;
      }

      .cls-1, .cls-2, .cls-3 {
        fill: #fff;
      }

      .cls-1, .cls-3 {
        stroke-miterlimit: 10;
      }

      .cls-4 {
        fill: #010101;
      }

      .cls-4, .cls-2 {
        stroke-width: 0px;
      }

      .cls-3 {
        stroke: #fff;
      }
    </style>
  </defs>
  <g>
    <path class="cls-2" d="M194.7,126.9c-1.1,0-2.1-.3-3-.9-.9-.6-1.5-1.4-1.8-2.4l-27.8-83.1c-.5-2.5-.3-4.4.3-5.6s1.9-1.8,3.6-1.8,1.8.3,2.7.8c.9.5,1.6,1.3,2.1,2.3l25.4,76.4h-2.2l23.3-75.4c.3-1.3,1-2.2,1.9-3,.9-.7,2-1.1,3.2-1.1s2.3.4,3.2,1.1,1.5,1.7,2,3l24,75.4h-3.1l25.4-76.4c.9-2.1,2.5-3.1,4.8-3.1s3.5.8,4.2,2.4c.7,1.6.7,3.3,0,5l-27.6,83.1c-.3,1-.9,1.8-1.8,2.4s-1.9.9-3.2.9-2.2-.3-3.1-.9c-.9-.6-1.5-1.4-1.7-2.4l-24.5-76.1h2.2l-23.6,76.1c-.5,1.1-1.1,2-2,2.5s-1.8.8-2.8.8h0Z"/>
    <path class="cls-2" d="M341.5,127.9c-9.1,0-17.3-2.1-24.6-6.2-7.2-4.2-13-9.9-17.1-17.1s-6.2-15.4-6.2-24.4,2.1-17.3,6.2-24.6c4.2-7.2,9.9-13,17.1-17.1,7.2-4.2,15.5-6.2,24.6-6.2s17.3,2.1,24.5,6.2c7.2,4.2,12.9,9.9,17,17.1,4.2,7.2,6.2,15.4,6.2,24.6l-4.3,6.8c0,7.8-1.9,14.7-5.7,20.9s-9,11.1-15.5,14.7-13.9,5.4-22.3,5.4ZM341.5,118.4c7.2,0,13.6-1.7,19.3-5.1,5.6-3.4,10.1-7.9,13.4-13.7,3.3-5.8,4.9-12.2,4.9-19.5s-1.6-13.8-4.9-19.6c-3.2-5.8-7.7-10.3-13.4-13.7s-12.1-5-19.3-5-13.5,1.7-19.2,5c-5.7,3.4-10.2,7.9-13.5,13.7-3.3,5.8-5,12.3-5,19.6s1.6,13.7,5,19.4c3.3,5.8,7.8,10.3,13.5,13.7,5.7,3.4,12.1,5.1,19.2,5.1ZM384.4,126.9c-1.6,0-2.9-.5-3.9-1.5-1-1-1.5-2.2-1.5-3.7v-31.3l3.2-10.3h7v41.6c0,1.5-.5,2.7-1.4,3.7-.9,1-2.1,1.5-3.6,1.5h0Z"/>
    <path class="cls-2" d="M420.2,126.9c-1.5,0-2.7-.5-3.7-1.5-1-1-1.5-2.2-1.5-3.7V38.3c0-1.6.5-2.8,1.5-3.8,1-.9,2.2-1.4,3.7-1.4s2.9.5,3.8,1.4c.9.9,1.4,2.2,1.4,3.8v83.4c0,1.5-.5,2.7-1.4,3.7-.9,1-2.2,1.5-3.8,1.5ZM418.5,69.7c.7-7.3,2.7-13.8,6-19.5,3.3-5.7,7.6-10.1,12.9-13.3,5.2-3.2,11.1-4.8,17.5-4.8s7.7.5,10.1,1.5c2.4,1,3.3,2.9,2.7,5.5-.3,1.7-1.1,2.7-2.4,3.1-1.3.3-2.8.4-4.5,0-1.8-.3-3.7-.4-5.9-.4-5.7,0-10.8,1.2-15.2,3.6-4.5,2.4-7.9,5.7-10.5,9.9-2.5,4.2-3.8,8.9-3.8,14.3h-6.9Z"/>
    <path class="cls-2" d="M524.7,127.8c-9,0-17-2-24.1-6.1-7-4.1-12.5-9.7-16.5-16.9-4-7.2-6-15.4-6-24.7s1.9-17.6,5.6-24.8,9-12.8,15.6-16.9c6.6-4.1,14.2-6.2,22.8-6.2s15.9,2,22.4,5.9,11.6,9.4,15.2,16.3c3.7,6.9,5.5,14.9,5.5,23.9s-.5,2.7-1.4,3.5c-.9.9-2.1,1.3-3.6,1.3h-75.4v-8.9h78.1l-7.5,5.7c.2-7.4-1-14-3.8-19.7-2.7-5.7-6.7-10.2-11.7-13.5-5.1-3.2-11-4.9-17.9-4.9s-12.3,1.6-17.4,4.9c-5.1,3.3-9.1,7.7-12,13.5s-4.4,12.3-4.4,19.9,1.5,14,4.6,19.7c3.1,5.7,7.4,10.2,12.9,13.4s11.8,4.9,18.9,4.9,8.9-.8,13.5-2.3,8.1-3.6,10.7-6.1c.9-.9,2-1.4,3.3-1.5s2.4.3,3.3,1.1c1.2,1,1.9,2.2,2,3.4s-.5,2.4-1.6,3.4c-3.7,3.3-8.4,6.1-14.3,8.2-5.9,2.2-11.5,3.3-16.9,3.3h0Z"/>
  </g>
  <path class="cls-3" d="M121.1,0v145.8"/>
  <path class="cls-1" d="M.7,54.5c0-.8.3-1.4.8-2s1.2-1,1.8-1.2l71.7-25.1c1.2-.3,2.3-.2,3.2.3.9.5,1.4,1.4,1.4,2.5,0,.7-.2,1.3-.5,1.8-.3.5-.9.9-1.9,1.2-22.4,7.4-44.9,14.8-67.3,22.2l65.1,18c.5.1,1,.5,1.4,1.1s.6,1.2.6,1.8-.2,1.3-.6,1.8c-.4.5-.9.9-1.5,1.1-21.8,5.8-43.5,11.7-65.3,17.5,22.7,6.1,45.5,12.3,68.2,18.4,1.3.3,2,1.3,2,2.9,0,1.2-.4,2-1.3,2.5-.9.5-2,.6-3.2.2L3.2,98.4c-.9-.3-1.5-.7-2-1.3-.4-.6-.7-1.2-.6-1.9,0-.8.3-1.5.8-2s1.1-.9,1.9-1.1c21.8-5.6,43.7-11.2,65.5-16.8-21.8-5.9-43.6-11.7-65.4-17.6-.8-.3-1.5-.7-1.9-1.3-.1-.2-.4-.5-.6-1.1-.1-.4-.1-.7-.1-.9Z"/>
  <path class="cls-4" d="M79,94.7c0,.8-.3,1.4-.8,2-.6.6-1.2.9-1.9,1.1L5,119.7c-1.2.3-2.3.2-3.2-.4-.9-.6-1.3-1.4-1.3-2.6,0-.7.2-1.3.5-1.8.3-.5,1-.9,1.9-1.1l64.8-18.8h0L5.1,75.4c-.5-.2-1-.5-1.3-1.1s-.5-1.2-.5-1.8c0-.7.2-1.3.6-1.8.4-.5.9-.9,1.5-1.1l63.4-15.3h0L3.3,31.9c-1.4-.4-2-1.4-2-3,0-1.1.5-2,1.4-2.5.9-.5,2-.5,3.3-.2l71.4,24.5c.9.3,1.5.7,1.9,1.3s.6,1.2.6,1.9c0,.8-.3,1.5-.8,2s-1.2.9-1.9,1.1l-60.8,15.7h0l60,18.6c.8.3,1.4.7,1.9,1.3s.7,1.2.7,2h0Z"/>
</svg>