<?xml version="1.0" encoding="UTF-8"?>
<svg id="Layer_1" data-name="Layer 1" xmlns="http://www.w3.org/2000/svg" viewBox="0 0 80.49 94.81">
  <defs>
    <style>
      .cls-1 {
        fill: none;
      }

      .cls-1, .cls-2 {
        stroke: #010101;
        stroke-miterlimit: 10;
      }

      .cls-2 {
        fill: #010101;
        stroke-width: .5px;
      }

      .cls-3 {
        opacity: .35;
      }
    </style>
  </defs>
  <g class="cls-3">
    <path class="cls-2" d="M.71,28.95c0-.75.28-1.41.82-1.98s1.16-.96,1.83-1.16L75.02.7c1.22-.33,2.29-.23,3.2.32.91.54,1.37,1.39,1.36,2.55,0,.68-.16,1.27-.46,1.78-.31.51-.93.9-1.88,1.16L9.85,30.21v-2.44l65.16,18.97c.54.14,1,.49,1.37,1.07s.55,1.17.55,1.78c0,.68-.2,1.28-.57,1.83-.37.54-.87.91-1.48,1.11L9.68,70.95v-2.44l68.1,19.9c1.35.34,2.03,1.33,2.02,2.95,0,1.15-.45,1.98-1.33,2.48-.88.51-1.97.59-3.25.24L3.17,72.86c-.88-.28-1.54-.7-1.98-1.28-.44-.58-.66-1.2-.65-1.88,0-.81.26-1.49.77-2.03s1.13-.91,1.88-1.11l65.51-18.22v2.44L3.34,32.22c-.81-.28-1.46-.7-1.93-1.28s-.71-1.24-.7-1.98h0Z"/>
    <path class="cls-1" d="M79.02,69.16c-.02.75-.3,1.4-.85,1.96-.56.56-1.18.94-1.86,1.12L5.01,94.15c-1.23.31-2.29.18-3.2-.38-.9-.56-1.34-1.42-1.31-2.57.02-.68.18-1.27.5-1.77.32-.5.95-.88,1.91-1.12l64.81-18.81h0L5.08,49.94c-.54-.15-.99-.51-1.35-1.1s-.53-1.18-.52-1.79c0-.68.22-1.28.6-1.82.38-.53.89-.89,1.5-1.08l63.39-15.3h0L3.29,6.37c-1.35-.37-2-1.37-1.96-2.99.03-1.15.48-1.97,1.38-2.46.89-.49,1.98-.55,3.26-.18l71.45,24.48c.87.29,1.52.73,1.95,1.32s.63,1.22.62,1.89c-.02.81-.29,1.48-.81,2.01s-1.15.89-1.91,1.08l-60.83,15.72h0l60.02,18.61c.81.29,1.44.73,1.9,1.32s.68,1.25.66,2h0Z"/>
  </g>
</svg>